<?xml version="1.0" encoding="utf-8"?>
<!-- Generator: Adobe Illustrator 21.0.0, SVG Export Plug-In . SVG Version: 6.00 Build 0)  -->
<svg version="1.1" id="Layer_1" xmlns="http://www.w3.org/2000/svg" xmlns:xlink="http://www.w3.org/1999/xlink" x="0px" y="0px"
	 viewBox="0 0 208 64" style="enable-background:new 0 0 208 64;" xml:space="preserve">
<style type="text/css">
	.st0{fill:#E82427;}
	.st1{fill:#7A7C7E;}
</style>
<g>
	<path class="st0" d="M22,53.1c0,1.1-0.3,1.9-0.8,2.4c-0.5,0.5-1.4,0.8-2.7,1c-1,0.1-2.7,0.2-5,0.2h-3.1c-2.4,0-4.1-0.1-5.2-0.3
		c-1.2-0.2-2-0.6-2.4-1.1c-0.4-0.5-0.6-1.3-0.6-2.5c0-1.2,0.2-2.1,0.5-2.6c0.4-0.6,1.2-1,2.4-1.3c1.1-0.2,2.9-0.3,5.4-0.3h3.1
		c2.7,0,4.6,0.1,5.7,0.4c1.2,0.3,1.9,0.7,2.3,1.4C21.9,50.9,22,51.8,22,53.1z M19.1,53v-0.8c0-0.8-0.2-1.3-0.5-1.6
		c-0.3-0.3-0.9-0.5-1.8-0.6c-0.6-0.1-1.7-0.1-3.4-0.1h-2.8c-2.3,0-3.8,0.1-4.4,0.3c-0.7,0.3-1.1,1-1.1,2v0.8c0,1,0.4,1.7,1.1,2
		c0.6,0.2,2,0.3,4.3,0.3h2.9c1.7,0,2.8,0,3.4-0.1c0.9-0.1,1.4-0.3,1.8-0.6C18.9,54.3,19.1,53.8,19.1,53z"/>
	<path class="st0" d="M68.6,48.6l-8.5,8h-4.4l-8.5-8h3.3l7.3,6.9l0.3-0.1l7.3-6.8H68.6z"/>
	<path class="st0" d="M114,54.3c0,1-0.7,1.7-2.1,2c-1,0.2-3.1,0.4-6.3,0.4h-3.7c-2.4,0-4.1-0.1-5.2-0.3c-1.2-0.2-2-0.6-2.4-1.1
		c-0.4-0.5-0.6-1.3-0.6-2.5c0-1.2,0.2-2.1,0.5-2.6c0.4-0.6,1.2-1,2.3-1.3c1.1-0.2,2.9-0.3,5.4-0.3h3.7c3,0,5.1,0.2,6.4,0.6
		c1.2,0.4,1.8,1,1.8,1.8h-2.7c0-0.5-0.5-0.8-1.5-1c-0.7-0.1-2-0.1-4.1-0.1h-3.5c-2.3,0-3.8,0.1-4.5,0.3c-0.8,0.3-1.3,0.9-1.3,1.8
		v1.2c0,1.1,0.4,1.7,1.2,2c0.6,0.2,2.1,0.3,4.5,0.3h3.6c2.1,0,3.5,0,4.1-0.1c1-0.1,1.5-0.5,1.5-1H114z M107.8,53.1H96.3l0-1.2h11.5
		V53.1z"/>
	<path class="st0" d="M156.2,56.7v-4.8c0-0.6-0.4-1.1-1.2-1.5c-0.8-0.4-1.9-0.5-3.3-0.5h-3.5c-1.3,0-2.4,0.2-3.3,0.6
		c-0.9,0.4-1.3,0.9-1.3,1.5v4.8h-2.9v-8h2.9v1.1c1-0.7,2.6-1.1,4.6-1.1h3.5c2.3,0,4.2,0.3,5.5,0.9c1.3,0.6,2,1.4,2,2.5v4.7H156.2z"
		/>
	<path class="st0" d="M205.8,54.3c0,0.9-0.5,1.5-1.4,1.9c-0.9,0.3-2.2,0.5-4.1,0.5h-8.5c-3.7,0-5.6-0.8-5.6-2.3h2.9
		c0,0.7,1,1.1,3.1,1.1h7.3c1,0,1.8-0.1,2.3-0.2c0.7-0.2,1-0.5,1-0.9c0-0.5-0.6-0.9-1.7-1c-0.7-0.1-1.7-0.2-3.1-0.2
		c-0.6,0-1.4,0-2.4,0c-1.1,0-1.9,0-2.4,0c-2.1,0-3.8-0.1-4.8-0.4c-1.5-0.4-2.3-1-2.3-1.9c0-0.8,0.5-1.4,1.5-1.8
		c0.9-0.3,2.2-0.5,4.1-0.5h8.1c4,0,6,0.8,6,2.3h-3c0-0.7-1.1-1.1-3.2-1.1h-7.6c-1.8,0-2.6,0.3-2.6,1c0,0.7,1.6,1.1,4.8,1.1
		c0.5,0,1.2,0,2.2,0c1,0,1.7,0,2.2,0c2.2,0,3.9,0.1,5,0.4C205,52.7,205.8,53.4,205.8,54.3z"/>
</g>
<g>
	<path class="st1" d="M11.1,36.4c0,0.7,0.2,1.3,0.5,1.8c0.3,0.5,0.7,0.7,1.2,0.7h8.5v7.5H7.7c-0.7,0-1.4-0.2-2-0.6
		c-0.6-0.4-1.2-0.9-1.6-1.6c-0.5-0.7-0.8-1.5-1.1-2.4c-0.3-0.9-0.4-1.9-0.4-2.9v-30h8.5V36.4z"/>
	<path class="st1" d="M24.8,16.4c0-1,0.1-2,0.4-2.9c0.3-0.9,0.6-1.7,1.1-2.4c0.5-0.7,1-1.2,1.6-1.6c0.6-0.4,1.3-0.6,2-0.6H47
		c0.7,0,1.4,0.2,2,0.6c0.6,0.4,1.2,0.9,1.6,1.6c0.5,0.7,0.8,1.5,1.1,2.4c0.3,0.9,0.4,1.9,0.4,2.9v22.5c0,1-0.1,2-0.4,2.9
		c-0.3,0.9-0.6,1.7-1.1,2.4c-0.5,0.7-1,1.2-1.6,1.6c-0.6,0.4-1.3,0.6-2,0.6H29.9c-0.7,0-1.4-0.2-2-0.6c-0.6-0.4-1.2-0.9-1.6-1.6
		c-0.5-0.7-0.8-1.5-1.1-2.4c-0.3-0.9-0.4-1.9-0.4-2.9V16.4z M33.8,38.2c0.3,0.5,0.7,0.7,1.2,0.7h6.8c0.5,0,0.9-0.2,1.2-0.7
		c0.3-0.5,0.5-1.1,0.5-1.8V18.9c0-0.7-0.2-1.3-0.5-1.8c-0.3-0.5-0.7-0.7-1.2-0.7H35c-0.5,0-0.9,0.2-1.2,0.7
		c-0.3,0.5-0.5,1.1-0.5,1.8v17.5C33.3,37.1,33.5,37.7,33.8,38.2z"/>
	<path class="st1" d="M55.5,8.9h22.2c0.7,0,1.4,0.2,2,0.6c0.6,0.4,1.2,0.9,1.6,1.6c0.5,0.7,0.8,1.5,1.1,2.4c0.3,0.9,0.4,1.9,0.4,2.9
		V22c0,1.1-0.2,2.2-0.5,3.2c-0.3,1-0.7,1.8-1.3,2.5c0.5,0.7,1,1.5,1.3,2.4c0.3,1,0.5,2,0.5,3.1v13.1h-8.5V33.8
		c0-0.7-0.2-1.3-0.5-1.8c-0.3-0.5-0.7-0.7-1.2-0.7h-6.9v-7.5h6.9c0.5,0,0.9-0.2,1.2-0.7c0.3-0.5,0.5-1.1,0.5-1.8v-2.5
		c0-0.7-0.2-1.3-0.5-1.8c-0.3-0.5-0.7-0.7-1.2-0.7H64v30h-8.5V8.9z"/>
	<path class="st1" d="M94.8,36.4c0,0.7,0.2,1.3,0.5,1.8c0.3,0.5,0.7,0.7,1.2,0.7h17.1v7.5H91.3c-0.7,0-1.4-0.2-2-0.6
		c-0.6-0.4-1.2-0.9-1.6-1.6c-0.5-0.7-0.8-1.5-1.1-2.4c-0.3-0.9-0.4-1.9-0.4-2.9V16.4c0-1,0.1-2,0.4-2.9c0.3-0.9,0.6-1.7,1.1-2.4
		c0.5-0.7,1-1.2,1.6-1.6c0.6-0.4,1.3-0.6,2-0.6h22.2v7.5H96.5c-0.5,0-0.9,0.2-1.2,0.7c-0.3,0.5-0.5,1.1-0.5,1.8v12.5V36.4z
		 M96.4,31.3v-7.5h17.1v7.5H96.4z"/>
	<path class="st1" d="M117,16.4c0-1,0.1-2,0.4-2.9c0.3-0.9,0.6-1.7,1.1-2.4c0.5-0.7,1-1.2,1.6-1.6c0.6-0.4,1.3-0.6,2-0.6h17.1
		c0.7,0,1.4,0.2,2,0.6c0.6,0.4,1.2,0.9,1.6,1.6c0.5,0.7,0.8,1.5,1.1,2.4c0.3,0.9,0.4,1.9,0.4,2.9v30h-8.5V18.9
		c0-0.7-0.2-1.3-0.5-1.8c-0.3-0.5-0.7-0.7-1.2-0.7h-6.8c-0.5,0-0.9,0.2-1.2,0.7c-0.3,0.5-0.5,1.1-0.5,1.8v27.5H117V16.4z"/>
	<path class="st1" d="M175,38.9v7.5h-27.3v-15c0-1,0.1-2,0.4-2.9c0.3-0.9,0.6-1.7,1.1-2.4c0.5-0.7,1-1.2,1.6-1.6
		c0.6-0.4,1.3-0.6,2-0.6h12c0.5,0,0.9-0.2,1.2-0.7c0.3-0.5,0.5-1.1,0.5-1.8v-5h-18.8V8.9H175v15c0,1-0.1,2-0.4,2.9
		c-0.3,0.9-0.6,1.7-1.1,2.4c-0.5,0.7-1,1.2-1.6,1.6c-0.6,0.4-1.3,0.6-2,0.6h-11.9c-0.5,0-0.9,0.2-1.2,0.7c-0.3,0.5-0.5,1.1-0.5,1.8
		v5H175z"/>
	<path class="st1" d="M178.4,16.4c0-1,0.1-2,0.4-2.9c0.3-0.9,0.6-1.7,1.1-2.4c0.5-0.7,1-1.2,1.6-1.6c0.6-0.4,1.3-0.6,2-0.6h17.1
		c0.7,0,1.4,0.2,2,0.6c0.6,0.4,1.2,0.9,1.6,1.6c0.5,0.7,0.8,1.5,1.1,2.4c0.3,0.9,0.4,1.9,0.4,2.9v22.5c0,1-0.1,2-0.4,2.9
		c-0.3,0.9-0.6,1.7-1.1,2.4c-0.5,0.7-1,1.2-1.6,1.6c-0.6,0.4-1.3,0.6-2,0.6h-17.1c-0.7,0-1.4-0.2-2-0.6c-0.6-0.4-1.2-0.9-1.6-1.6
		c-0.5-0.7-0.8-1.5-1.1-2.4c-0.3-0.9-0.4-1.9-0.4-2.9V16.4z M187.4,38.2c0.3,0.5,0.7,0.7,1.2,0.7h6.8c0.5,0,0.9-0.2,1.2-0.7
		c0.3-0.5,0.5-1.1,0.5-1.8V18.9c0-0.7-0.2-1.3-0.5-1.8c-0.3-0.5-0.7-0.7-1.2-0.7h-6.8c-0.5,0-0.9,0.2-1.2,0.7
		c-0.3,0.5-0.5,1.1-0.5,1.8v17.5C186.9,37.1,187.1,37.7,187.4,38.2z"/>
</g>
</svg>
